<svg width="1060" height="1600" viewBox="0 0 1060 1600" fill="none" xmlns="http://www.w3.org/2000/svg">
<rect width="1060" height="1600" fill="white"/>
<path fill-rule="evenodd" clip-rule="evenodd" d="M929 0.68C955.973 2.66 978.391 10.242 998.972 24.346C1026.07 42.917 1047.21 76.484 1052.5 109.319C1055.8 129.867 1053.95 155.567 1047.86 173.5C1032.05 220.119 994.565 252.337 945.5 261.479C939.379 262.62 946.001 262.797 998.25 262.892L1058 263V131.5V0L991.25 0.175C954.538 0.271 926.525 0.498 929 0.68ZM403.5 2.047C424.231 3.601 444.744 10.621 463.733 22.659C470.778 27.126 474.238 30.012 484.349 39.857C520.933 75.48 532.792 131.807 513.919 180.315C497.537 222.42 462.863 251.681 417.727 261.488C412.22 262.685 418.177 262.85 469.25 262.921L527 263V132V1L460.25 1.148C421.023 1.235 397.623 1.606 403.5 2.047ZM798.079 52.25C798.122 80.438 798.303 103.05 798.48 102.5C798.658 101.95 800.017 97.45 801.502 92.5C804.712 81.793 812.254 66.381 819.364 56C825.957 46.373 841.39 30.943 851 24.371C866.81 13.558 887.438 5.104 904.5 2.445C911.428 1.365 904.829 1.185 855.25 1.099L798 1L798.079 52.25ZM125.5 3.097C83.151 6.587 48.05 27.136 25.291 61.758C18.063 72.755 12.868 84.244 9.11 97.547C5.207 111.361 4.04 119.639 4.04 133.5C4.04 147.334 5.202 155.601 9.101 169.5C21.81 214.799 57.198 248.984 103.518 260.706C113.682 263.278 115.916 263.481 133.5 263.426C151.456 263.371 153.14 263.197 164.157 260.276C192.082 252.87 217.035 236.708 234.306 214.839C244.651 201.741 253.328 184.064 258.241 166.079L261.404 154.5L261.119 78.5L260.834 2.5L198.167 2.386C163.7 2.324 131 2.643 125.5 3.097ZM266.999 2.25C266.998 2.388 266.886 25.273 266.749 53.106L266.5 103.712L270.078 92.606C274.363 79.309 279.145 69.604 287.378 57.5C298.621 40.971 317.889 24.1 335.829 15.075C344.288 10.82 360.769 5.38 370.555 3.614C377.91 2.286 374.358 2.173 322.75 2.09C292.087 2.04 266.999 2.112 266.999 2.25ZM646.87 3.539C614.639 8.561 589.596 22.179 568.15 46.345C554.026 62.26 545.333 79.29 538.465 104.5C536.254 112.615 535.344 141.084 536.944 152.032C544.644 204.691 585.321 248.974 636.217 260.104C697.51 273.508 758.092 242.552 783.013 185.093C785.131 180.209 788.3 170.693 790.054 163.947C793.78 149.624 793.637 154.19 793.25 61.75L793 2L724.25 2.097C672.015 2.17 653.427 2.517 646.87 3.539ZM137.5 269.081C193.207 273.515 240.926 315.388 253.613 370.969C255.946 381.187 256.532 410.455 254.635 422.009C251.782 439.39 244.96 456.543 234.46 472.74C227.944 482.791 209.96 501.231 200.319 507.745C185.186 517.97 166.633 525.659 150.161 528.531C145.481 529.347 141.542 530.124 141.409 530.258C141.275 530.391 167.903 530.5 200.582 530.5H259.999L260 399.25V268L193.75 268.142C152.053 268.232 131.206 268.58 137.5 269.081ZM670.788 269.102C721.282 273.596 765.533 309.227 781.814 358.5C789.998 383.269 790.053 416.201 781.95 440.357C778.179 451.597 770.918 466.19 764.462 475.5C758.066 484.725 740.307 502.301 731.425 508.196C716.671 517.989 698.146 525.711 682.67 528.519C676.392 529.658 682.747 529.831 733.75 529.91L792 530V399V268L726.75 268.138C684.594 268.226 664.787 268.568 670.788 269.102ZM925 269.163C888.474 272.095 861.115 284.483 838.177 308.476C819.854 327.643 808.622 349.274 802.855 376.5C801.195 384.336 801.219 414.462 802.891 423C811.202 465.421 838.326 500.804 875.873 518.202C910.919 534.442 952.748 534.137 986.264 517.397C1020.85 500.123 1046.44 468.504 1055.01 432.449C1056.18 427.527 1057.51 422.787 1057.97 421.917C1058.43 421.046 1058.57 386.171 1058.28 344.417L1057.76 268.5L996.13 268.45C962.233 268.422 930.225 268.743 925 269.163ZM0.053 320.25L0.106 371.5L2.486 363.458C9.379 340.159 19.132 323.791 36.457 306.443C55.055 287.82 75.864 276.61 102 271.133L111.5 269.142L55.75 269.071L0 269L0.053 320.25ZM387 269.666C342.232 274.084 303.28 300.799 282.989 341C278.651 349.596 273.378 365.403 271.322 375.977C269.044 387.696 269.117 413.576 271.459 424.471C277.841 454.164 293.242 481.056 313.86 498.513C338.866 519.683 367.492 530.369 399 530.293C445.968 530.181 489.354 503.922 511.838 462C517.095 452.199 521.304 441.312 523.436 432C524.381 427.875 525.549 423.6 526.033 422.5C527.301 419.617 527.532 402.412 527.25 331.75L527 269L458.75 269.16C421.212 269.248 388.925 269.476 387 269.666ZM532.116 319.75C532.18 347.663 532.447 369.6 532.71 368.5C535.791 355.611 543.935 337.507 552.276 325.008C558.719 315.353 577.36 296.833 587 290.509C602.113 280.595 619.528 273.539 636.5 270.453C642.566 269.35 636.063 269.168 587.75 269.09L532 269L532.116 319.75ZM405.81 535.655C432.941 538.77 452.301 546.395 473 562.117C488.807 574.123 501.1 589.317 510.467 608.426C532.387 653.144 527.188 706.029 496.941 746C485.724 760.824 468.03 775.518 451.375 783.842C441.89 788.582 425.427 793.896 415.5 795.423C407.26 796.689 411.633 796.814 467.254 796.903L528.007 797L527.754 665.75L527.5 534.5L461 534.428C401.571 534.364 395.703 534.494 405.81 535.655ZM940.689 535.097C1005.78 542.678 1055.24 598.73 1055.34 665C1055.37 687.148 1051.26 704.748 1041.43 724.5C1029.16 749.155 1008.32 770.254 984.265 782.367C971.619 788.735 955.659 793.809 943.5 795.326C941.85 795.532 967.275 795.768 1000 795.85L1059.5 796V665V534L996.5 534.13C956.916 534.211 936.172 534.571 940.689 535.097ZM268.068 585.25L268.136 635.5L270.406 627.89C271.654 623.704 274.42 616.504 276.551 611.89C294.523 572.983 327.345 546.626 369 537.652L380.5 535.174L324.25 535.087L268 535L268.068 585.25ZM653.212 536.073C623.364 538.957 594.751 552.779 573.921 574.378C543.991 605.413 530.323 650.359 538.61 690.5C544.307 718.095 555.841 739.818 574.997 759.031C609.429 793.566 658.601 805.632 704.759 790.872C724.346 784.608 739.388 775.458 755.154 760.217C772.668 743.286 783.808 724.494 790.624 700.385C794.87 685.365 794.671 691.247 794.25 593.25L794 535L727.75 535.136C691.313 535.211 657.77 535.633 653.212 536.073ZM799.116 586.25C799.18 614.438 799.451 636.6 799.719 635.5C801.505 628.17 806.792 613.398 809.741 607.5C818.203 590.574 833.025 572.281 847 561.514C863.555 548.76 884.946 539.405 906 535.711C907.375 535.47 883.862 535.211 853.75 535.136L799 535L799.116 586.25ZM125.5 536.667C94.731 539.213 68.046 550.942 46.141 571.55C5.199 610.064 -6.555 671.89 17.424 722.594C35.481 760.774 68.549 786.67 110.529 795.505C121.436 797.801 145.499 797.855 157.241 795.61C183.33 790.622 205.042 778.985 224.562 759.527C241.84 742.303 252.055 724.946 258.121 702.5C259.757 696.45 261.523 690.719 262.047 689.764C262.627 688.706 263 658.297 263 612.014V536L196.25 536.168C159.537 536.261 127.7 536.485 125.5 536.667ZM142.444 803.152C158.327 805.166 162.912 806.266 174.5 810.841C224.507 830.584 256.687 877.509 257.245 931.5C257.551 961.161 250.169 985.012 233.115 1009.47C213.857 1037.08 185.141 1055.52 151.463 1061.91L141.5 1063.8L201.25 1063.9L261 1064L260.998 932.75L260.997 801.5L195.192 801.498L129.388 801.495L142.444 803.152ZM671.339 802.528C691.918 805.017 704.728 808.929 720.974 817.685C754.181 835.583 778.168 867.686 786.588 905.5C789.07 916.645 789.585 941.749 787.587 954.14C783.279 980.849 769.909 1007.19 751.194 1025.85C730.484 1046.5 706.351 1058.38 675 1063.33C673.625 1063.55 699.612 1063.79 732.75 1063.86L793 1064V932.5V801L726.75 801.108C666.93 801.206 661.552 801.344 671.339 802.528ZM1.116 853.75C1.18 882.212 1.433 904.6 1.679 903.5C1.924 902.4 3.429 897.363 5.023 892.307C19.333 846.904 58.858 812.344 106 804.016L116.5 802.162L58.75 802.081L1 802L1.116 853.75ZM390 803.029C351.245 805.489 314.34 827.084 292.55 860.05C267.067 898.605 263.263 947.048 282.454 988.612C300.047 1026.71 337.353 1055.38 378.218 1062.19C387.591 1063.75 411.409 1063.75 420.782 1062.19C436.606 1059.55 457.671 1051.05 471.299 1041.8C495.772 1025.18 515.521 997.964 523.027 970.5C524.23 966.1 525.847 960.25 526.62 957.5C528.383 951.228 528.562 940.913 528.25 863.75L528 802L464.75 802.149C429.962 802.231 396.325 802.627 390 803.029ZM533.053 853.25L533.106 904.5L535.486 896.458C542.128 874.008 552.437 856.521 568.482 840.489C589.313 819.673 611.78 808.268 642 803.166C645.736 802.535 629.134 802.199 590.25 802.119L533 802L533.053 853.25ZM926 802.678C908.677 803.476 889.075 808.452 874.5 815.751C824.293 840.894 795.08 896.921 803.457 952C810.95 1001.27 844.332 1041.49 890.52 1056.92C906.028 1062.09 914.367 1063.41 931.5 1063.39C947.994 1063.37 956.752 1062.02 970.923 1057.31C998.807 1048.04 1021.98 1030.46 1038.32 1006.18C1045.04 996.186 1052.7 979.16 1055.49 968C1056.93 962.225 1058.54 956.6 1059.07 955.5C1059.67 954.255 1059.94 924.981 1059.77 878L1059.5 802.5L996 802.439C961.075 802.405 929.575 802.513 926 802.678ZM933 1070.08C964.172 1073.06 989.028 1083.66 1010.5 1103.15C1019.47 1111.28 1024.53 1116.9 1030.21 1125C1070.19 1182.04 1058.76 1261.68 1004.5 1304.15C986.83 1317.98 965.877 1327.22 943.93 1330.86C940.369 1331.46 959.064 1331.81 998.25 1331.88L1058 1332V1200.5V1069L991.25 1069.14C949.879 1069.22 927.732 1069.58 933 1070.08ZM403 1071.04C448.425 1074.62 489.614 1103.01 509.469 1144.41C525.12 1177.04 526.84 1214.05 514.284 1248C498.301 1291.22 459.823 1323.32 414.75 1331.05C411.038 1331.68 408 1332.27 408 1332.35C408 1332.43 434.566 1332.4 467.035 1332.27L526.071 1332.05L526.285 1201.02L526.5 1070L460 1070.15C421.44 1070.23 397.491 1070.61 403 1071.04ZM798.03 1120.75L798.059 1171.5L801.866 1160C808.737 1139.24 818.664 1123.14 833.985 1107.9C849.077 1092.89 865.326 1082.93 885.436 1076.37C891.521 1074.38 900.1 1072.18 904.5 1071.48C911.515 1070.35 905.451 1070.19 855.25 1070.1L798 1070L798.03 1120.75ZM125.614 1072.15C82.1 1075.98 47.535 1096.26 24.735 1131.32C11.038 1152.39 4 1176.55 4 1202.5C4 1224.12 7.95 1241.24 17.38 1260.5C33.06 1292.52 59.841 1316.04 93.059 1326.94C114.758 1334.07 142.199 1334.95 164.157 1329.22C210.956 1317.03 245.708 1281.94 258.142 1234.35C261.757 1220.51 261.642 1224.35 261.25 1130.75L261 1071L198.25 1071.14C163.738 1071.21 131.051 1071.67 125.614 1072.15ZM266.03 1122.25L266.059 1173.5L269.868 1162C274.367 1148.42 280.788 1135.38 288.091 1125C298.888 1109.65 318.637 1092.72 335.829 1084.07C344.288 1079.82 360.769 1074.38 370.555 1072.61C377.906 1071.29 374.292 1071.17 322.25 1071.09L266 1071L266.03 1122.25ZM650 1072.08C611.577 1076.95 579.119 1096.92 557.169 1129.2C555.41 1131.79 551.792 1138.31 549.127 1143.7C541.325 1159.48 537.654 1172.4 536.011 1189.86C531.276 1240.17 556.468 1289.58 599.751 1314.85C653.094 1346.01 720.809 1334.76 761.592 1287.96C778.271 1268.82 791.101 1239.57 792.886 1216.61C793.224 1212.27 793.346 1177.73 793.157 1139.86L792.815 1071L724.657 1071.13C687.171 1071.2 653.575 1071.62 650 1072.08ZM136.754 1338.04C167.072 1340.53 196.099 1353.98 217.511 1375.46C242.867 1400.9 255.988 1432.79 255.988 1469C255.988 1517.48 230.45 1560.69 187.934 1584.14C177.646 1589.82 159.012 1596.33 147.667 1598.2C140.812 1599.34 147.338 1599.5 199.915 1599.5H259.997L259.999 1468.25L260 1337L193.75 1337.14C154.996 1337.23 131.34 1337.6 136.754 1338.04ZM668.171 1338.03C695.019 1340.07 719.608 1350.14 741.637 1368.12C763.367 1385.85 780.908 1416.16 786.13 1445C788.147 1456.14 787.898 1484.39 785.691 1494.77C780.17 1520.72 767.902 1543.23 748.986 1562.1C730.877 1580.16 707.805 1592.59 683.378 1597.44C677.223 1598.67 682.571 1598.82 734.25 1598.91L792 1599V1468V1337L725.25 1337.15C687.291 1337.23 662.672 1337.61 668.171 1338.03ZM0.116 1388.75C0.18 1416.66 0.453 1438.6 0.723 1437.5C0.993 1436.4 2.679 1431.22 4.468 1426C11 1406.93 19.808 1392.51 33.976 1377.69C53.301 1357.47 77.431 1344.58 105.5 1339.46C111.572 1338.35 105.041 1338.17 56.25 1338.09L0 1338L0.116 1388.75ZM384.265 1339.03C341.043 1343.57 302.852 1370.48 282.721 1410.56C277.822 1420.32 272.843 1435.31 270.791 1446.5C268.871 1456.97 269.168 1483.65 271.318 1493.78C280.41 1536.66 306.435 1569.81 345.301 1588.02C361.695 1595.7 389.015 1600.91 405.382 1599.47C450.738 1595.48 487.607 1572.54 509.781 1534.5C515.833 1524.12 520.7 1511.49 523.947 1497.74L526.836 1485.5L526.268 1411.75L525.7 1338L458.6 1338.14C421.695 1338.21 388.244 1338.61 384.265 1339.03ZM532.015 1388.25L532.029 1438.5L536.043 1426.57C551.554 1380.48 590.673 1347.2 638.999 1339C641.475 1338.58 618.413 1338.18 587.75 1338.12L532 1338L532.015 1388.25ZM919 1338.67C879.158 1342.6 844.053 1363.63 822.492 1396.5C815.32 1407.43 811.795 1414.73 807.739 1427.04C802.401 1443.23 801.497 1449.42 801.53 1469.5C801.561 1488.74 802.194 1493.13 807.212 1509C825.281 1566.14 881.502 1604.08 940.459 1598.92C996.692 1594 1041.6 1555.01 1055.53 1499C1058.82 1485.79 1058.66 1491.85 1058.25 1396.75L1058 1338L990.25 1338.16C952.987 1338.25 920.925 1338.48 919 1338.67Z" fill="#F7F8F9"/>
</svg>
